<?xml version="1.0" encoding="UTF-8"?>
<svg width="348px" height="88px" viewBox="0 0 348 88" version="1.1" xmlns="http://www.w3.org/2000/svg" xmlns:xlink="http://www.w3.org/1999/xlink">
    <!-- Generator: Sketch 43 (38999) - http://www.bohemiancoding.com/sketch -->
    <title>finless-header</title>
    <desc>Created with Sketch.</desc>
    <defs></defs>
    <g id="Page-1" stroke="none" stroke-width="1" fill="none" fill-rule="evenodd">
        <g id="Artboard-4" transform="translate(-322.000000, -195.000000)">
            <g id="finless-header" transform="translate(322.000000, 196.000000)">
                <g id="fish" stroke="#797979" fill-rule="nonzero" fill="#AAAAAA">
                    <path d="M42.3018373,42.5468165 L41.9723675,42.2183328 L42.3018373,42.5468165 Z M56.2782152,28.6122696 L56.607685,28.2837859 L56.2782152,27.9553951 L55.9487454,28.2837859 L56.2782152,28.6122696 Z M70.2545932,42.5468165 L70.584063,42.8753002 L70.9134396,42.5468165 L70.584063,42.2183328 L70.2545932,42.5468165 Z M56.2782152,56.4813634 L55.9487454,56.8098471 L56.2782152,57.1382379 L56.607685,56.8098471 L56.2782152,56.4813634 Z M42.3018373,70.4159102 L42.6313071,70.744394 L42.9606837,70.4159102 L42.6313071,70.0874265 L42.3018373,70.4159102 Z M28.3254593,84.3504571 L27.9959895,84.6789408 L28.3254593,85.0073317 L28.6549291,84.6789408 L28.3254593,84.3504571 Z M42.3018373,14.6777227 L42.6313071,15.0062064 L42.9606837,14.6777227 L42.6313071,14.349239 L42.3018373,14.6777227 Z M28.3254593,0.743175834 L28.6549291,0.414735777 L28.3254593,0.0862947909 L27.9959895,0.414735777 L28.3254593,0.743175834 Z M42.6313071,42.8753002 L56.607685,28.9407533 L55.9487454,28.2837859 L41.9723675,42.2183328 L42.6313071,42.8753002 Z M55.9487454,28.9407533 L69.9251234,42.8753002 L70.584063,42.2183328 L56.607685,28.2837859 L55.9487454,28.9407533 Z M69.9251234,42.2183328 L55.9487454,56.1528796 L56.607685,56.8098471 L70.584063,42.8753002 L69.9251234,42.2183328 Z M56.607685,56.1528796 L28.6549291,28.2837859 L27.9959895,28.9407533 L55.9487454,56.8098471 L56.607685,56.1528796 Z M41.9723675,42.2183328 L27.9959895,56.1528796 L28.6549291,56.8098471 L42.6313071,42.8753002 L41.9723675,42.2183328 Z M27.9959895,56.8098471 L41.9723675,70.744394 L42.6313071,70.0874265 L28.6549291,56.1528796 L27.9959895,56.8098471 Z M41.9723675,70.0874265 L27.9959895,84.0219734 L28.6549291,84.6789408 L42.6313071,70.744394 L41.9723675,70.0874265 Z M28.6549291,84.0219734 L14.6785512,70.0874265 L14.0196115,70.744394 L27.9959895,84.6789408 L28.6549291,84.0219734 Z M14.6785512,70.744394 L28.6549291,56.8098471 L27.9959895,56.1528796 L14.0196115,70.0874265 L14.6785512,70.744394 Z M28.6549291,28.9407533 L42.6313071,15.0062064 L41.9723675,14.349239 L27.9959895,28.2837859 L28.6549291,28.9407533 Z M42.6313071,14.349239 L28.6549291,0.414735777 L27.9959895,1.07161589 L41.9723675,15.0062064 L42.6313071,14.349239 Z M27.9959895,0.414735777 L14.0196115,14.349239 L14.6785512,15.0062064 L28.6549291,1.07161589 L27.9959895,0.414735777 Z M14.0196115,15.0062064 L27.9959895,28.9407533 L28.6549291,28.2837859 L14.6785512,14.349239 L14.0196115,15.0062064 Z M14.6785512,14.349239 L0.702129436,0.414735777 L0.0432773885,1.07161589 L14.0196115,15.0062064 L14.6785512,14.349239 Z M14.0196115,15.4129094 L0.0432773885,29.3474563 L0.702129436,30.0044237 L14.6785512,16.0698768 L14.0196115,15.4129094 Z M14.6785512,70.3953735 L0.702129436,56.4608266 L0.0432773885,57.1177941 L14.0196115,71.0523409 L14.6785512,70.3953735 Z M14.0196115,71.3522124 L0.0432773885,85.2867593 L0.702129436,85.9437267 L14.6785512,72.0091798 L14.0196115,71.3522124 Z M32.5610097,13.0695831 L31.9048653,13.0695831 L31.9048653,13.9985529 L32.5610097,13.9985529 L32.5610097,13.0695831 Z M60.5137656,40.9386769 L59.8576212,40.9386769 L59.8576212,41.8676467 L60.5137656,41.8676467 L60.5137656,40.9386769 Z M32.5610097,68.8077706 L31.9048653,68.8077706 L31.9048653,69.7367404 L32.5610097,69.7367404 L32.5610097,68.8077706 Z" id="path0_stroke"></path>
                </g>
                <path d="M106.114,34.79 C105.973999,34.6499993 105.904,34.4866676 105.904,34.3 L105.904,16.128 C105.904,15.9226656 105.969333,15.7500007 106.1,15.61 C106.230667,15.4699993 106.398666,15.4 106.604,15.4 L119.624,15.4 C119.829334,15.4 120.001999,15.4699993 120.142,15.61 C120.282001,15.7500007 120.352,15.9226656 120.352,16.128 L120.352,19.096 C120.352,19.3013344 120.282001,19.4693327 120.142,19.6 C120.001999,19.7306673 119.829334,19.796 119.624,19.796 L111.056,19.796 L111.056,23.688 L119.064,23.688 C119.269334,23.688 119.441999,23.7579993 119.582,23.898 C119.722001,24.0380007 119.792,24.2106656 119.792,24.416 L119.792,27.384 C119.792,27.5893344 119.722001,27.7573327 119.582,27.888 C119.441999,28.0186673 119.269334,28.084 119.064,28.084 L111.056,28.084 L111.056,34.3 C111.056,34.4866676 110.990667,34.6499993 110.86,34.79 C110.729333,34.9300007 110.561334,35 110.356,35 L106.604,35 C106.417332,35 106.254001,34.9300007 106.114,34.79 Z M124.552,18.214 C124.421333,18.0739993 124.356,17.9013344 124.356,17.696 L124.356,15.092 C124.356,14.8866656 124.425999,14.7140007 124.566,14.574 C124.706001,14.4339993 124.869332,14.364 125.056,14.364 L128.556,14.364 C128.761334,14.364 128.933999,14.4339993 129.074,14.574 C129.214001,14.7140007 129.284,14.8866656 129.284,15.092 L129.284,17.696 C129.284,17.9013344 129.214001,18.0739993 129.074,18.214 C128.933999,18.3540007 128.761334,18.424 128.556,18.424 L125.056,18.424 C124.850666,18.424 124.682667,18.3540007 124.552,18.214 Z M124.566,34.79 C124.425999,34.6499993 124.356,34.4866676 124.356,34.3 L124.356,21.14 C124.356,20.9346656 124.425999,20.7666673 124.566,20.636 C124.706001,20.5053327 124.869332,20.44 125.056,20.44 L128.556,20.44 C128.761334,20.44 128.933999,20.5053327 129.074,20.636 C129.214001,20.7666673 129.284,20.9346656 129.284,21.14 L129.284,34.3 C129.284,34.5053344 129.214001,34.6733327 129.074,34.804 C128.933999,34.9346673 128.761334,35 128.556,35 L125.056,35 C124.869332,35 124.706001,34.9300007 124.566,34.79 Z M134.058,34.79 C133.917999,34.6499993 133.848,34.4866676 133.848,34.3 L133.848,21.14 C133.848,20.9346656 133.917999,20.7666673 134.058,20.636 C134.198001,20.5053327 134.361332,20.44 134.548,20.44 L137.992,20.44 C138.197334,20.44 138.365333,20.5053327 138.496,20.636 C138.626667,20.7666673 138.692,20.9346656 138.692,21.14 L138.692,22.204 C139.196002,21.5879969 139.844663,21.0933352 140.638,20.72 C141.431337,20.3466648 142.341328,20.16 143.368,20.16 C144.432005,20.16 145.379329,20.4026642 146.21,20.888 C147.040671,21.3733358 147.693998,22.0919952 148.17,23.044 C148.646002,23.9960048 148.884,25.1439933 148.884,26.488 L148.884,34.3 C148.884,34.4866676 148.818667,34.6499993 148.688,34.79 C148.557333,34.9300007 148.389334,35 148.184,35 L144.46,35 C144.254666,35 144.082001,34.9346673 143.942,34.804 C143.801999,34.6733327 143.732,34.5053344 143.732,34.3 L143.732,26.656 C143.732,25.8159958 143.531335,25.1720022 143.13,24.724 C142.728665,24.2759978 142.145337,24.052 141.38,24.052 C140.63333,24.052 140.045335,24.2806644 139.616,24.738 C139.186664,25.1953356 138.972,25.8346626 138.972,26.656 L138.972,34.3 C138.972,34.4866676 138.906667,34.6499993 138.776,34.79 C138.645333,34.9300007 138.477334,35 138.272,35 L134.548,35 C134.361332,35 134.198001,34.9300007 134.058,34.79 Z M153.518,34.804 C153.377999,34.6733327 153.308,34.5053344 153.308,34.3 L153.308,15.82 C153.308,15.6146656 153.377999,15.4466673 153.518,15.316 C153.658001,15.1853327 153.830666,15.12 154.036,15.12 L157.536,15.12 C157.741334,15.12 157.909333,15.1853327 158.04,15.316 C158.170667,15.4466673 158.236,15.6146656 158.236,15.82 L158.236,34.3 C158.236,34.4866676 158.170667,34.6499993 158.04,34.79 C157.909333,34.9300007 157.741334,35 157.536,35 L154.036,35 C153.830666,35 153.658001,34.9346673 153.518,34.804 Z M164.256,33.446 C162.949327,32.2233272 162.277333,30.445345 162.24,28.112 L162.24,27.244 C162.314667,25.0226556 163.005327,23.2866729 164.312,22.036 C165.618673,20.7853271 167.382655,20.16 169.604,20.16 C171.209341,20.16 172.567328,20.4819968 173.678,21.126 C174.788672,21.7700032 175.61933,22.656661 176.17,23.786 C176.720669,24.915339 176.996,26.1986595 176.996,27.636 L176.996,28.336 C176.996,28.5413344 176.926001,28.7139993 176.786,28.854 C176.645999,28.9940007 176.473334,29.064 176.268,29.064 L167.392,29.064 L167.392,29.232 C167.410667,30.0720042 167.606665,30.7486641 167.98,31.262 C168.353335,31.7753359 168.88533,32.032 169.576,32.032 C170.024002,32.032 170.383332,31.9433342 170.654,31.766 C170.924668,31.5886658 171.181332,31.3600014 171.424,31.08 C171.592001,30.8933324 171.727333,30.7766669 171.83,30.73 C171.932667,30.6833331 172.095999,30.66 172.32,30.66 L175.988,30.66 C176.156001,30.66 176.300666,30.7113328 176.422,30.814 C176.543334,30.9166672 176.604,31.0426659 176.604,31.192 C176.604,31.6773358 176.328669,32.2466634 175.778,32.9 C175.22733,33.5533366 174.424672,34.113331 173.37,34.58 C172.315328,35.046669 171.06934,35.28 169.632,35.28 C167.354655,35.28 165.562673,34.6686728 164.256,33.446 Z M171.844,26.208 L171.844,26.152 C171.844,25.2559955 171.648002,24.5606691 171.256,24.066 C170.863998,23.5713309 170.313337,23.324 169.604,23.324 C168.894663,23.324 168.348668,23.5713309 167.966,24.066 C167.583331,24.5606691 167.392,25.2559955 167.392,26.152 L167.392,26.208 L171.844,26.208 Z M183.156,34.636 C182.129328,34.2066645 181.368669,33.6933363 180.874,33.096 C180.379331,32.4986637 180.132,31.9573358 180.132,31.472 C180.132,31.2853324 180.201999,31.1313339 180.342,31.01 C180.482001,30.8886661 180.635999,30.828 180.804,30.828 L184.192,30.828 C184.304,30.828 184.397333,30.865333 184.472,30.94 C184.789335,31.1453344 184.966666,31.2666665 185.004,31.304 C185.358668,31.5653346 185.689998,31.7659993 185.998,31.906 C186.306001,32.0460007 186.674664,32.116 187.104,32.116 C187.608002,32.116 188.023332,32.018001 188.35,31.822 C188.676668,31.625999 188.84,31.3506684 188.84,30.996 C188.84,30.6973318 188.751334,30.4546676 188.574,30.268 C188.396666,30.0813324 188.060669,29.8993342 187.566,29.722 C187.071331,29.5446658 186.320005,29.3626676 185.312,29.176 C182.08265,28.5226634 180.468,27.029345 180.468,24.696 C180.468,23.9306628 180.715331,23.1980035 181.21,22.498 C181.704669,21.7979965 182.432662,21.2333355 183.394,20.804 C184.355338,20.3746645 185.507993,20.16 186.852,20.16 C188.214673,20.16 189.395328,20.3699979 190.394,20.79 C191.392672,21.2100021 192.153331,21.7139971 192.676,22.302 C193.198669,22.8900029 193.46,23.4266642 193.46,23.912 C193.46,24.0800008 193.399334,24.2293327 193.278,24.36 C193.156666,24.4906673 193.012001,24.556 192.844,24.556 L189.764,24.556 C189.595999,24.556 189.465334,24.518667 189.372,24.444 C189.147999,24.3319994 188.924001,24.1920008 188.7,24.024 C188.363998,23.7999989 188.070001,23.6273339 187.818,23.506 C187.565999,23.3846661 187.244002,23.324 186.852,23.324 C186.385331,23.324 186.021335,23.4266656 185.76,23.632 C185.498665,23.8373344 185.368,24.0986651 185.368,24.416 C185.368,24.6960014 185.447332,24.9246658 185.606,25.102 C185.764667,25.2793342 186.091331,25.4519992 186.586,25.62 C187.080669,25.7880008 187.831995,25.9653324 188.84,26.152 C190.669342,26.4693349 191.999329,27.0339959 192.83,27.846 C193.660671,28.6580041 194.076,29.6053279 194.076,30.688 C194.076,32.088007 193.455339,33.2033292 192.214,34.034 C190.97266,34.8646708 189.232011,35.28 186.992,35.28 C185.461326,35.28 184.182672,35.0653355 183.156,34.636 Z M200.124,34.636 C199.097328,34.2066645 198.336669,33.6933363 197.842,33.096 C197.347331,32.4986637 197.1,31.9573358 197.1,31.472 C197.1,31.2853324 197.169999,31.1313339 197.31,31.01 C197.450001,30.8886661 197.603999,30.828 197.772,30.828 L201.16,30.828 C201.272,30.828 201.365333,30.865333 201.44,30.94 C201.757335,31.1453344 201.934666,31.2666665 201.972,31.304 C202.326668,31.5653346 202.657998,31.7659993 202.966,31.906 C203.274001,32.0460007 203.642664,32.116 204.072,32.116 C204.576002,32.116 204.991332,32.018001 205.318,31.822 C205.644668,31.625999 205.808,31.3506684 205.808,30.996 C205.808,30.6973318 205.719334,30.4546676 205.542,30.268 C205.364666,30.0813324 205.028669,29.8993342 204.534,29.722 C204.039331,29.5446658 203.288005,29.3626676 202.28,29.176 C199.05065,28.5226634 197.436,27.029345 197.436,24.696 C197.436,23.9306628 197.683331,23.1980035 198.178,22.498 C198.672669,21.7979965 199.400662,21.2333355 200.362,20.804 C201.323338,20.3746645 202.475993,20.16 203.82,20.16 C205.182673,20.16 206.363328,20.3699979 207.362,20.79 C208.360672,21.2100021 209.121331,21.7139971 209.644,22.302 C210.166669,22.8900029 210.428,23.4266642 210.428,23.912 C210.428,24.0800008 210.367334,24.2293327 210.246,24.36 C210.124666,24.4906673 209.980001,24.556 209.812,24.556 L206.732,24.556 C206.563999,24.556 206.433334,24.518667 206.34,24.444 C206.115999,24.3319994 205.892001,24.1920008 205.668,24.024 C205.331998,23.7999989 205.038001,23.6273339 204.786,23.506 C204.533999,23.3846661 204.212002,23.324 203.82,23.324 C203.353331,23.324 202.989335,23.4266656 202.728,23.632 C202.466665,23.8373344 202.336,24.0986651 202.336,24.416 C202.336,24.6960014 202.415332,24.9246658 202.574,25.102 C202.732667,25.2793342 203.059331,25.4519992 203.554,25.62 C204.048669,25.7880008 204.799995,25.9653324 205.808,26.152 C207.637342,26.4693349 208.967329,27.0339959 209.798,27.846 C210.628671,28.6580041 211.044,29.6053279 211.044,30.688 C211.044,32.088007 210.423339,33.2033292 209.182,34.034 C207.94066,34.8646708 206.200011,35.28 203.96,35.28 C202.429326,35.28 201.150672,35.0653355 200.124,34.636 Z M222.594,34.79 C222.453999,34.6499993 222.384,34.4866676 222.384,34.3 L222.384,16.128 C222.384,15.9226656 222.449333,15.7500007 222.58,15.61 C222.710667,15.4699993 222.878665,15.4 223.084,15.4 L236.104,15.4 C236.309334,15.4 236.481999,15.4699993 236.622,15.61 C236.762001,15.7500007 236.832,15.9226656 236.832,16.128 L236.832,19.096 C236.832,19.3013344 236.762001,19.4693327 236.622,19.6 C236.481999,19.7306673 236.309334,19.796 236.104,19.796 L227.536,19.796 L227.536,23.688 L235.544,23.688 C235.749334,23.688 235.921999,23.7579993 236.062,23.898 C236.202001,24.0380007 236.272,24.2106656 236.272,24.416 L236.272,27.384 C236.272,27.5893344 236.202001,27.7573327 236.062,27.888 C235.921999,28.0186673 235.749334,28.084 235.544,28.084 L227.536,28.084 L227.536,34.3 C227.536,34.4866676 227.470667,34.6499993 227.34,34.79 C227.209333,34.9300007 227.041334,35 226.836,35 L223.084,35 C222.897332,35 222.734001,34.9300007 222.594,34.79 Z M242.166,33.642 C240.905994,32.5499945 240.22,30.9960101 240.108,28.98 C240.089333,28.7373321 240.08,28.3173363 240.08,27.72 C240.08,27.1226637 240.089333,26.7026679 240.108,26.46 C240.22,24.4813234 240.92466,22.9366722 242.222,21.826 C243.51934,20.7153278 245.306655,20.16 247.584,20.16 C249.861345,20.16 251.64866,20.7153278 252.946,21.826 C254.24334,22.9366722 254.947999,24.4813234 255.06,26.46 C255.097333,26.9453358 255.116,27.3653316 255.116,27.72 C255.116,28.0746684 255.097333,28.4946642 255.06,28.98 C254.947999,30.9960101 254.262006,32.5499945 253.002,33.642 C251.741994,34.7340055 249.936012,35.28 247.584,35.28 C245.231988,35.28 243.426006,34.7340055 242.166,33.642 Z M249.292,31.038 C249.665335,30.5619976 249.88,29.8293383 249.936,28.84 C249.954667,28.6533324 249.964,28.2800028 249.964,27.72 C249.964,27.1599972 249.954667,26.7866676 249.936,26.6 C249.88,25.6293285 249.665335,24.9013358 249.292,24.416 C248.918665,23.9306642 248.349337,23.688 247.584,23.688 C246.818663,23.688 246.249335,23.9306642 245.876,24.416 C245.502665,24.9013358 245.288,25.6293285 245.232,26.6 L245.204,27.72 L245.232,28.84 C245.288,29.8293383 245.502665,30.5619976 245.876,31.038 C246.249335,31.5140024 246.818663,31.752 247.584,31.752 C248.349337,31.752 248.918665,31.5140024 249.292,31.038 Z M260.73,33.642 C259.469993,32.5499945 258.784,30.9960101 258.672,28.98 C258.653333,28.7373321 258.644,28.3173363 258.644,27.72 C258.644,27.1226637 258.653333,26.7026679 258.672,26.46 C258.784,24.4813234 259.48866,22.9366722 260.786,21.826 C262.08334,20.7153278 263.870655,20.16 266.148,20.16 C268.425345,20.16 270.21266,20.7153278 271.51,21.826 C272.80734,22.9366722 273.511999,24.4813234 273.624,26.46 C273.661333,26.9453358 273.68,27.3653316 273.68,27.72 C273.68,28.0746684 273.661333,28.4946642 273.624,28.98 C273.511999,30.9960101 272.826006,32.5499945 271.566,33.642 C270.305993,34.7340055 268.500012,35.28 266.148,35.28 C263.795988,35.28 261.990006,34.7340055 260.73,33.642 Z M267.856,31.038 C268.229335,30.5619976 268.444,29.8293383 268.5,28.84 C268.518667,28.6533324 268.528,28.2800028 268.528,27.72 C268.528,27.1599972 268.518667,26.7866676 268.5,26.6 C268.444,25.6293285 268.229335,24.9013358 267.856,24.416 C267.482665,23.9306642 266.913337,23.688 266.148,23.688 C265.382663,23.688 264.813335,23.9306642 264.44,24.416 C264.066665,24.9013358 263.852,25.6293285 263.796,26.6 L263.768,27.72 L263.796,28.84 C263.852,29.8293383 264.066665,30.5619976 264.44,31.038 C264.813335,31.5140024 265.382663,31.752 266.148,31.752 C266.913337,31.752 267.482665,31.5140024 267.856,31.038 Z M278.902,33.572 C277.865995,32.4333276 277.310667,30.8093439 277.236,28.7 L277.208,27.72 L277.236,26.712 C277.310667,24.6773232 277.870661,23.0766725 278.916,21.91 C279.961338,20.7433275 281.379991,20.16 283.172,20.16 C284.852008,20.16 286.205328,20.7013279 287.232,21.784 L287.232,15.82 C287.232,15.6146656 287.301999,15.4466673 287.442,15.316 C287.582,15.1853327 287.745332,15.12 287.932,15.12 L291.544,15.12 C291.749334,15.12 291.921999,15.1853327 292.062,15.316 C292.202,15.4466673 292.272,15.6146656 292.272,15.82 L292.272,34.3 C292.272,34.5053344 292.202,34.6733327 292.062,34.804 C291.921999,34.9346673 291.749334,35 291.544,35 L288.212,35 C288.025332,35 287.862,34.9300007 287.722,34.79 C287.581999,34.6499993 287.512,34.4866676 287.512,34.3 L287.512,33.432 C286.503995,34.6640062 285.057343,35.28 283.172,35.28 C281.361324,35.28 279.938005,34.7106724 278.902,33.572 Z M286.588,30.618 C286.980002,30.1046641 287.194666,29.4560039 287.232,28.672 C287.269333,28.1493307 287.288,27.7946676 287.288,27.608 C287.288,27.4026656 287.269333,27.0573358 287.232,26.572 C287.194666,25.8439964 286.975335,25.2420024 286.574,24.766 C286.172664,24.2899976 285.580004,24.052 284.796,24.052 C283.955996,24.052 283.354002,24.2993309 282.99,24.794 C282.625998,25.2886691 282.416,25.9746623 282.36,26.852 L282.332,27.72 L282.36,28.588 C282.416,29.4653377 282.625998,30.1513309 282.99,30.646 C283.354002,31.1406691 283.955996,31.388 284.796,31.388 C285.59867,31.388 286.195998,31.1313359 286.588,30.618 Z M299.104,34.636 C298.077328,34.2066645 297.316669,33.6933363 296.822,33.096 C296.327331,32.4986637 296.08,31.9573358 296.08,31.472 C296.08,31.2853324 296.149999,31.1313339 296.29,31.01 C296.43,30.8886661 296.583999,30.828 296.752,30.828 L300.14,30.828 C300.252,30.828 300.345333,30.865333 300.42,30.94 C300.737335,31.1453344 300.914666,31.2666665 300.952,31.304 C301.306668,31.5653346 301.637998,31.7659993 301.946,31.906 C302.254001,32.0460007 302.622664,32.116 303.052,32.116 C303.556002,32.116 303.971331,32.018001 304.298,31.822 C304.624668,31.625999 304.788,31.3506684 304.788,30.996 C304.788,30.6973318 304.699334,30.4546676 304.522,30.268 C304.344666,30.0813324 304.008669,29.8993342 303.514,29.722 C303.019331,29.5446658 302.268005,29.3626676 301.26,29.176 C298.03065,28.5226634 296.416,27.029345 296.416,24.696 C296.416,23.9306628 296.663331,23.1980035 297.158,22.498 C297.652669,21.7979965 298.380662,21.2333355 299.342,20.804 C300.303338,20.3746645 301.455993,20.16 302.8,20.16 C304.162673,20.16 305.343328,20.3699979 306.342,20.79 C307.340671,21.2100021 308.10133,21.7139971 308.624,22.302 C309.146669,22.8900029 309.408,23.4266642 309.408,23.912 C309.408,24.0800008 309.347334,24.2293327 309.226,24.36 C309.104666,24.4906673 308.960001,24.556 308.792,24.556 L305.712,24.556 C305.543999,24.556 305.413334,24.518667 305.32,24.444 C305.095999,24.3319994 304.872001,24.1920008 304.648,24.024 C304.311998,23.7999989 304.018001,23.6273339 303.766,23.506 C303.513998,23.3846661 303.192002,23.324 302.8,23.324 C302.333331,23.324 301.969334,23.4266656 301.708,23.632 C301.446665,23.8373344 301.316,24.0986651 301.316,24.416 C301.316,24.6960014 301.395332,24.9246658 301.554,25.102 C301.712667,25.2793342 302.039331,25.4519992 302.534,25.62 C303.028669,25.7880008 303.779995,25.9653324 304.788,26.152 C306.617342,26.4693349 307.947329,27.0339959 308.778,27.846 C309.608671,28.6580041 310.024,29.6053279 310.024,30.688 C310.024,32.088007 309.403339,33.2033292 308.162,34.034 C306.92066,34.8646708 305.180011,35.28 302.94,35.28 C301.409325,35.28 300.130672,35.0653355 299.104,34.636 Z" id="Finless-Foods" fill="#384037"></path>
                <path d="M105.362305,61 L105.362305,48.203125 L108.324219,48.203125 C109.214848,48.2148438 110.01025,48.3657212 110.710449,48.6557617 C111.410648,48.9458022 112.002439,49.3500951 112.48584,49.8686523 C112.969241,50.3872096 113.338378,51.0082972 113.593262,51.7319336 C113.848146,52.45557 113.978516,53.2568315 113.984375,54.1357422 L113.984375,55.0761719 C113.978516,55.9550825 113.848146,56.756344 113.593262,57.4799805 C113.338378,58.2036169 112.969241,58.8247044 112.48584,59.3432617 C112.002439,59.861819 111.410648,60.2661118 110.710449,60.5561523 C110.01025,60.8461929 109.214848,60.9941406 108.324219,61 L105.362305,61 Z M107.014648,49.5390625 L107.014648,59.6728516 L108.324219,59.6728516 C109.015628,59.6669922 109.613279,59.5454113 110.117188,59.3081055 C110.621096,59.0707996 111.038573,58.7470724 111.369629,58.3369141 C111.700685,57.9267558 111.946777,57.4433622 112.10791,56.8867188 C112.269044,56.3300753 112.352539,55.7265658 112.358398,55.0761719 L112.358398,54.1181641 C112.352539,53.4677702 112.267579,52.8657254 112.103516,52.3120117 C111.939452,51.758298 111.693361,51.2778341 111.365234,50.8706055 C111.037108,50.4633769 110.621096,50.1425793 110.117188,49.9082031 C109.613279,49.673827 109.015628,49.5507813 108.324219,49.5390625 L107.014648,49.5390625 Z M121.414227,61.1757812 C120.746254,61.1757812 120.132491,61.0615246 119.572918,60.8330078 C119.013345,60.604491 118.534346,60.2851583 118.135906,59.875 C117.737467,59.4648417 117.426923,58.9785184 117.204266,58.4160156 C116.981608,57.8535128 116.870281,57.2412142 116.870281,56.5791016 L116.870281,56.2099609 C116.870281,55.442379 116.993327,54.7553741 117.239422,54.1489258 C117.485517,53.5424774 117.812174,53.0297873 118.219402,52.6108398 C118.626631,52.1918924 119.089517,51.8710949 119.608074,51.6484375 C120.126631,51.4257801 120.658364,51.3144531 121.203289,51.3144531 C121.888839,51.3144531 122.487954,51.4331043 123.000652,51.6704102 C123.51335,51.907716 123.939615,52.2358377 124.279461,52.6547852 C124.619306,53.0737326 124.872722,53.56738 125.039715,54.1357422 C125.206708,54.7041044 125.290203,55.3193326 125.290203,55.9814453 L125.290203,56.7109375 L118.496258,56.7109375 C118.513836,57.1445334 118.597331,57.5517559 118.746746,57.9326172 C118.896161,58.3134785 119.101237,58.6459947 119.36198,58.9301758 C119.622724,59.2143569 119.934733,59.4384757 120.298016,59.6025391 C120.661299,59.7666024 121.062662,59.8486328 121.502117,59.8486328 C122.082198,59.8486328 122.597818,59.7314465 123.048992,59.4970703 C123.500166,59.2626941 123.875163,58.9521504 124.173992,58.5654297 L125.167156,59.3388672 C125.008952,59.5791028 124.8112,59.8090809 124.573895,60.0288086 C124.336589,60.2485363 124.062666,60.4433585 123.752117,60.6132812 C123.441569,60.783204 123.09001,60.9194331 122.69743,61.0219727 C122.30485,61.1245122 121.877119,61.1757812 121.414227,61.1757812 Z M121.203289,52.6503906 C120.875162,52.6503906 120.564619,52.7104486 120.271648,52.8305664 C119.978678,52.9506842 119.715009,53.1264637 119.480633,53.3579102 C119.246257,53.5893566 119.048505,53.8735335 118.887371,54.2104492 C118.726237,54.547365 118.613446,54.9355447 118.548992,55.375 L123.664227,55.375 L123.664227,55.2519531 C123.646648,54.9355453 123.58659,54.6220719 123.484051,54.3115234 C123.381511,54.000975 123.230634,53.7226575 123.031414,53.4765625 C122.832194,53.2304675 122.581709,53.0312508 122.279949,52.8789062 C121.97819,52.7265617 121.619307,52.6503906 121.203289,52.6503906 Z M135.216148,58.4775391 C135.216148,58.2841787 135.178063,58.1098641 135.101891,57.9545898 C135.025718,57.7993156 134.896813,57.6572272 134.715172,57.5283203 C134.53353,57.3994134 134.293298,57.2807623 133.994469,57.1723633 C133.695639,57.0639643 133.323572,56.9658208 132.878258,56.8779297 C132.333333,56.766601 131.836756,56.6318367 131.388512,56.4736328 C130.940267,56.3154289 130.556482,56.1264659 130.237144,55.9067383 C129.917807,55.6870106 129.670251,55.4292007 129.494469,55.1333008 C129.318687,54.8374009 129.230797,54.493166 129.230797,54.1005859 C129.230797,53.7138653 129.321616,53.3520525 129.503258,53.0151367 C129.684899,52.678221 129.93978,52.3837903 130.267906,52.1318359 C130.596033,51.8798816 130.987142,51.6806648 131.441246,51.5341797 C131.89535,51.3876946 132.394857,51.3144531 132.939781,51.3144531 C133.525722,51.3144531 134.05306,51.3906242 134.521812,51.5429688 C134.990565,51.6953133 135.388998,51.9062487 135.717125,52.1757812 C136.045252,52.4453138 136.298667,52.7602521 136.477379,53.1206055 C136.656091,53.4809588 136.745445,53.8691385 136.745445,54.2851562 L135.119469,54.2851562 C135.119469,54.0800771 135.066735,53.8793955 134.961266,53.6831055 C134.855796,53.4868154 134.709313,53.3125008 134.521812,53.1601562 C134.334312,53.0078117 134.107263,52.8847661 133.84066,52.7910156 C133.574057,52.6972652 133.273767,52.6503906 132.939781,52.6503906 C132.594076,52.6503906 132.290857,52.6884762 132.030113,52.7646484 C131.76937,52.8408207 131.552575,52.9433587 131.379723,53.0722656 C131.20687,53.2011725 131.0765,53.3505851 130.988609,53.5205078 C130.900718,53.6904305 130.856773,53.86621 130.856773,54.0478516 C130.856773,54.2353525 130.891929,54.402343 130.962242,54.5488281 C131.032555,54.6953132 131.154136,54.8271479 131.326988,54.9443359 C131.499841,55.061524 131.731284,55.1669917 132.021324,55.2607422 C132.311365,55.3544927 132.679037,55.4453121 133.124352,55.5332031 C133.710292,55.6562506 134.234701,55.798339 134.697594,55.9594727 C135.160487,56.1206063 135.550131,56.3139637 135.866539,56.5395508 C136.182947,56.7651378 136.424644,57.0273423 136.591637,57.3261719 C136.75863,57.6250015 136.842125,57.9707012 136.842125,58.3632812 C136.842125,58.7851584 136.746911,59.1689436 136.55648,59.5146484 C136.36605,59.8603533 136.100916,60.1562488 135.76107,60.4023438 C135.421225,60.6484387 135.014002,60.8388665 134.539391,60.9736328 C134.064779,61.1083991 133.546229,61.1757812 132.983727,61.1757812 C132.339192,61.1757812 131.764979,61.0893563 131.26107,60.9165039 C130.757161,60.7436515 130.330896,60.5151381 129.982262,60.230957 C129.633627,59.9467759 129.367028,59.6171894 129.182457,59.2421875 C128.997886,58.8671856 128.905602,58.4775411 128.905602,58.0732422 L130.531578,58.0732422 C130.555016,58.4072282 130.64437,58.6884754 130.799644,58.9169922 C130.954919,59.145509 131.148276,59.3300774 131.379723,59.4707031 C131.611169,59.6113288 131.867514,59.7109372 132.148766,59.7695312 C132.430017,59.8281253 132.708334,59.8574219 132.983727,59.8574219 C133.669277,59.8574219 134.211264,59.7314466 134.609703,59.4794922 C135.008143,59.2275378 135.210289,58.8935568 135.216148,58.4775391 Z M140.835453,51.4902344 L145.695805,51.4902344 L145.695805,59.59375 L148.798344,59.59375 L148.798344,61 L140.835453,61 L140.835453,59.59375 L144.069828,59.59375 L144.069828,52.9052734 L140.835453,52.9052734 L140.835453,51.4902344 Z M143.858891,48.9941406 C143.858891,48.724608 143.939456,48.4975595 144.10059,48.3129883 C144.261723,48.128417 144.50635,48.0361328 144.834476,48.0361328 C145.156744,48.0361328 145.399905,48.128417 145.563969,48.3129883 C145.728032,48.4975595 145.810062,48.724608 145.810062,48.9941406 C145.810062,49.2578138 145.728032,49.4775382 145.563969,49.6533203 C145.399905,49.8291024 145.156744,49.9169922 144.834476,49.9169922 C144.50635,49.9169922 144.261723,49.8291024 144.10059,49.6533203 C143.939456,49.4775382 143.858891,49.2578138 143.858891,48.9941406 Z M151.9655,56.1660156 C151.9655,55.4570277 152.051925,54.8051788 152.224777,54.2104492 C152.39763,53.6157197 152.648115,53.1044943 152.976242,52.6767578 C153.304369,52.2490213 153.702802,51.9150403 154.171555,51.6748047 C154.640307,51.4345691 155.170575,51.3144531 155.762375,51.3144531 C156.348315,51.3144531 156.86247,51.418456 157.304855,51.6264648 C157.74724,51.8344737 158.123701,52.1347637 158.43425,52.5273438 L158.513351,51.4902344 L159.989914,51.4902344 L159.989914,60.7978516 C159.989914,61.4248078 159.89177,61.9814429 159.69548,62.4677734 C159.49919,62.954104 159.223802,63.3671858 158.869308,63.7070312 C158.514815,64.0468767 158.091479,64.3046866 157.599289,64.4804688 C157.107099,64.6562509 156.562183,64.7441406 155.964523,64.7441406 C155.718428,64.7441406 155.437181,64.7163089 155.120773,64.6606445 C154.804365,64.6049802 154.483568,64.5141608 154.158371,64.3881836 C153.833174,64.2622064 153.519701,64.0937511 153.217941,63.8828125 C152.916182,63.6718739 152.656907,63.4111344 152.440109,63.1005859 L153.283859,62.125 C153.483079,62.3652356 153.688155,62.5688468 153.899094,62.7358398 C154.110032,62.9028329 154.323897,63.0361323 154.540695,63.1357422 C154.757493,63.2353521 154.974288,63.3071287 155.191086,63.3510742 C155.407884,63.3950198 155.624678,63.4169922 155.841476,63.4169922 C156.228197,63.4169922 156.576826,63.3613287 156.887375,63.25 C157.197923,63.1386713 157.463057,62.9760753 157.682785,62.762207 C157.902513,62.5483388 158.070968,62.2832047 158.188156,61.9667969 C158.305344,61.650389 158.363937,61.2871114 158.363937,60.8769531 L158.363937,60.0595703 C158.04753,60.4228534 157.673998,60.6997061 157.243332,60.8901367 C156.812666,61.0805674 156.313159,61.1757812 155.744797,61.1757812 C155.164716,61.1757812 154.640307,61.0527356 154.171555,60.8066406 C153.702802,60.5605456 153.305834,60.2207053 152.980637,59.7871094 C152.65544,59.3535135 152.404954,58.8422881 152.229172,58.253418 C152.05339,57.6645478 151.9655,57.0302768 151.9655,56.3505859 L151.9655,56.1660156 Z M153.591476,56.3505859 C153.591476,56.8134789 153.639816,57.2529276 153.736496,57.6689453 C153.833176,58.084963 153.985518,58.4511703 154.193527,58.7675781 C154.401536,59.083986 154.66667,59.3344717 154.988937,59.519043 C155.311205,59.7036142 155.697919,59.7958984 156.149094,59.7958984 C156.430345,59.7958984 156.68376,59.7622074 156.909348,59.6948242 C157.134935,59.6274411 157.337081,59.5322272 157.515793,59.4091797 C157.694505,59.2861322 157.854171,59.1396493 157.994797,58.9697266 C158.135422,58.7998038 158.258468,58.6123057 158.363937,58.4072266 L158.363937,54.0478516 C158.258468,53.8486318 158.135422,53.666993 157.994797,53.5029297 C157.854171,53.3388664 157.69304,53.1967779 157.511398,53.0766602 C157.329757,52.9565424 157.12761,52.8627933 156.904953,52.7954102 C156.682296,52.728027 156.436204,52.6943359 156.166672,52.6943359 C155.709638,52.6943359 155.318529,52.788085 154.993332,52.9755859 C154.668135,53.1630869 154.401536,53.4165023 154.193527,53.7358398 C153.985518,54.0551774 153.833176,54.4243143 153.736496,54.8432617 C153.639816,55.2622091 153.591476,55.7031227 153.591476,56.1660156 L153.591476,56.3505859 Z M165.40707,51.4902344 L165.521328,52.8964844 C165.867033,52.4042944 166.291833,52.0190444 166.795742,51.7407227 C167.299651,51.462401 167.862145,51.3203125 168.483242,51.3144531 C168.981291,51.3144531 169.433924,51.3847649 169.841152,51.5253906 C170.248381,51.6660163 170.595545,51.8857407 170.882656,52.1845703 C171.169767,52.4833999 171.390956,52.8627907 171.54623,53.3227539 C171.701505,53.7827171 171.77914,54.3290984 171.77914,54.9619141 L171.77914,61 L170.153164,61 L170.153164,54.9970703 C170.153164,54.5751932 170.106289,54.2177749 170.012539,53.9248047 C169.918788,53.6318345 169.77963,53.3945322 169.595058,53.2128906 C169.410487,53.0312491 169.184904,52.8994145 168.918301,52.8173828 C168.651698,52.7353512 168.345548,52.6943359 167.999844,52.6943359 C167.454919,52.6943359 166.97592,52.830565 166.562832,53.1030273 C166.149744,53.3754896 165.820157,53.7343728 165.574062,54.1796875 L165.574062,61 L163.948086,61 L163.948086,51.4902344 L165.40707,51.4902344 Z M192.026539,54.1357422 L195.603687,54.1357422 L195.603687,55.7529297 L192.026539,55.7529297 L192.026539,59.7167969 L190.400562,59.7167969 L190.400562,55.7529297 L186.832203,55.7529297 L186.832203,54.1357422 L190.400562,54.1357422 L190.400562,50.4003906 L192.026539,50.4003906 L192.026539,54.1357422 Z M210.683117,48.203125 L218.417492,48.203125 L218.417492,49.6181641 L215.350109,49.6181641 L215.350109,59.59375 L218.417492,59.59375 L218.417492,61 L210.683117,61 L210.683117,59.59375 L213.680187,59.59375 L213.680187,49.6181641 L210.683117,49.6181641 L210.683117,48.203125 Z M222.621758,47.5 L227.482109,47.5 L227.482109,59.59375 L230.584648,59.59375 L230.584648,61 L222.621758,61 L222.621758,59.59375 L225.856133,59.59375 L225.856133,48.9150391 L222.621758,48.9150391 L222.621758,47.5 Z M234.305515,47.5 L239.165867,47.5 L239.165867,59.59375 L242.268406,59.59375 L242.268406,61 L234.305515,61 L234.305515,59.59375 L237.53989,59.59375 L237.53989,48.9150391 L234.305515,48.9150391 L234.305515,47.5 Z M251.904312,59.6904297 C251.587904,60.159182 251.1924,60.5239245 250.717789,60.784668 C250.243177,61.0454115 249.695331,61.1757812 249.074234,61.1757812 C248.576185,61.1757812 248.125017,61.0981453 247.720718,60.9428711 C247.316419,60.7875969 246.97072,60.5459001 246.683609,60.2177734 C246.396498,59.8896468 246.175309,59.4721705 246.020035,58.965332 C245.864761,58.4584936 245.787125,57.8505895 245.787125,57.1416016 L245.787125,51.4902344 L247.413101,51.4902344 L247.413101,57.1591797 C247.413101,57.6748073 247.454116,58.1025374 247.536148,58.4423828 C247.61818,58.7822283 247.741225,59.0532216 247.905289,59.2553711 C248.069352,59.4575205 248.270034,59.599609 248.507339,59.6816406 C248.744645,59.7636723 249.018568,59.8046875 249.329117,59.8046875 C249.99123,59.8046875 250.525892,59.6699232 250.933121,59.4003906 C251.340349,59.130858 251.643569,58.7675804 251.842789,58.3105469 L251.842789,51.4902344 L253.477554,51.4902344 L253.477554,61 L252.000992,61 L251.904312,59.6904297 Z M263.737484,58.4775391 C263.737484,58.2841787 263.699398,58.1098641 263.623226,57.9545898 C263.547054,57.7993156 263.418149,57.6572272 263.236507,57.5283203 C263.054866,57.3994134 262.814634,57.2807623 262.515804,57.1723633 C262.216975,57.0639643 261.844908,56.9658208 261.399593,56.8779297 C260.854669,56.766601 260.358092,56.6318367 259.909847,56.4736328 C259.461603,56.3154289 259.077818,56.1264659 258.75848,55.9067383 C258.439143,55.6870106 258.191586,55.4292007 258.015804,55.1333008 C257.840022,54.8374009 257.752132,54.493166 257.752132,54.1005859 C257.752132,53.7138653 257.842952,53.3520525 258.024593,53.0151367 C258.206235,52.678221 258.461115,52.3837903 258.789242,52.1318359 C259.117368,51.8798816 259.508478,51.6806648 259.962582,51.5341797 C260.416685,51.3876946 260.916192,51.3144531 261.461117,51.3144531 C262.047057,51.3144531 262.574396,51.3906242 263.043148,51.5429688 C263.5119,51.6953133 263.910334,51.9062487 264.238461,52.1757812 C264.566587,52.4453138 264.820003,52.7602521 264.998714,53.1206055 C265.177426,53.4809588 265.266781,53.8691385 265.266781,54.2851562 L263.640804,54.2851562 C263.640804,54.0800771 263.58807,53.8793955 263.482601,53.6831055 C263.377132,53.4868154 263.230649,53.3125008 263.043148,53.1601562 C262.855647,53.0078117 262.628599,52.8847661 262.361996,52.7910156 C262.095393,52.6972652 261.795103,52.6503906 261.461117,52.6503906 C261.115412,52.6503906 260.812192,52.6884762 260.551449,52.7646484 C260.290705,52.8408207 260.073911,52.9433587 259.901058,53.0722656 C259.728206,53.2011725 259.597836,53.3505851 259.509945,53.5205078 C259.422054,53.6904305 259.378109,53.86621 259.378109,54.0478516 C259.378109,54.2353525 259.413265,54.402343 259.483578,54.5488281 C259.553891,54.6953132 259.675471,54.8271479 259.848324,54.9443359 C260.021176,55.061524 260.252619,55.1669917 260.54266,55.2607422 C260.8327,55.3544927 261.200372,55.4453121 261.645687,55.5332031 C262.231628,55.6562506 262.756036,55.798339 263.218929,55.9594727 C263.681822,56.1206063 264.071467,56.3139637 264.387875,56.5395508 C264.704282,56.7651378 264.945979,57.0273423 265.112972,57.3261719 C265.279965,57.6250015 265.363461,57.9707012 265.363461,58.3632812 C265.363461,58.7851584 265.268247,59.1689436 265.077816,59.5146484 C264.887385,59.8603533 264.622251,60.1562488 264.282406,60.4023438 C263.94256,60.6484387 263.535338,60.8388665 263.060726,60.9736328 C262.586114,61.1083991 262.067565,61.1757812 261.505062,61.1757812 C260.860528,61.1757812 260.286315,61.0893563 259.782406,60.9165039 C259.278497,60.7436515 258.852232,60.5151381 258.503597,60.230957 C258.154963,59.9467759 257.888364,59.6171894 257.703793,59.2421875 C257.519221,58.8671856 257.426937,58.4775411 257.426937,58.0732422 L259.052914,58.0732422 C259.076351,58.4072282 259.165706,58.6884754 259.32098,58.9169922 C259.476254,59.145509 259.669612,59.3300774 259.901058,59.4707031 C260.132505,59.6113288 260.38885,59.7109372 260.670101,59.7695312 C260.951353,59.8281253 261.22967,59.8574219 261.505062,59.8574219 C262.190612,59.8574219 262.732599,59.7314466 263.131039,59.4794922 C263.529478,59.2275378 263.731625,58.8935568 263.737484,58.4775391 Z M272.951515,49.1875 L272.951515,51.4902344 L276.572609,51.4902344 L276.572609,52.7470703 L272.951515,52.7470703 L272.951515,57.9150391 C272.951515,58.2841815 272.99839,58.588866 273.09214,58.8291016 C273.185891,59.0693371 273.314796,59.2612298 273.478859,59.4047852 C273.642922,59.5483406 273.831885,59.6494138 274.045753,59.7080078 C274.259622,59.7666019 274.48667,59.7958984 274.726906,59.7958984 C274.902688,59.7958984 275.084327,59.7856446 275.271828,59.7651367 C275.459329,59.7446288 275.642432,59.7197267 275.821144,59.6904297 C275.999856,59.6611327 276.166846,59.6303713 276.322121,59.5981445 C276.477395,59.5659178 276.604835,59.5380861 276.704445,59.5146484 L276.932961,60.6660156 C276.798194,60.7480473 276.634133,60.8198239 276.440773,60.8813477 C276.247413,60.9428714 276.036477,60.9956052 275.807961,61.0395508 C275.579444,61.0834963 275.337747,61.1171874 275.082863,61.140625 C274.827979,61.1640626 274.574563,61.1757812 274.322609,61.1757812 C273.900732,61.1757812 273.506693,61.1157233 273.14048,60.9956055 C272.774267,60.8754877 272.456399,60.6850599 272.186867,60.4243164 C271.917334,60.1635729 271.704934,59.8266622 271.54966,59.4135742 C271.394386,59.0004862 271.31675,58.5009795 271.31675,57.9150391 L271.31675,52.7470703 L268.820656,52.7470703 L268.820656,51.4902344 L271.31675,51.4902344 L271.31675,49.1875 L272.951515,49.1875 Z M287.017109,51.3144531 C287.169453,51.3144531 287.327655,51.3188476 287.491718,51.3276367 C287.655782,51.3364258 287.812518,51.3510741 287.961933,51.371582 C288.111348,51.3920899 288.249042,51.416992 288.375019,51.4462891 C288.500996,51.4755861 288.604999,51.5078123 288.687031,51.5429688 L288.467304,53.1337891 C288.150896,53.0634762 287.850606,53.0122072 287.566425,52.9799805 C287.282244,52.9477537 286.984884,52.9316406 286.674335,52.9316406 C285.912613,52.9316406 285.29592,53.1044905 284.824238,53.4501953 C284.352556,53.7959002 284.005391,54.2792938 283.782734,54.9003906 L283.782734,61 L282.147968,61 L282.147968,51.4902344 L283.694843,51.4902344 L283.773945,53.0019531 C284.160666,52.4804661 284.625016,52.0688492 285.167011,51.7670898 C285.709006,51.4653305 286.325699,51.3144531 287.017109,51.3144531 Z M298.718445,61 C298.653991,60.8769525 298.602722,60.7231455 298.564636,60.5385742 C298.52655,60.354003 298.498718,60.1621104 298.48114,59.9628906 C298.317077,60.1269539 298.133973,60.2822258 297.931824,60.4287109 C297.729674,60.575196 297.50702,60.704101 297.263855,60.8154297 C297.02069,60.9267584 296.761415,61.0146481 296.486023,61.0791016 C296.210631,61.143555 295.917665,61.1757812 295.607117,61.1757812 C295.103208,61.1757812 294.647646,61.1025398 294.240417,60.9560547 C293.833189,60.8095696 293.487489,60.6118177 293.203308,60.362793 C292.919127,60.1137683 292.699403,59.8178728 292.544128,59.4750977 C292.388854,59.1323225 292.311218,58.7617207 292.311218,58.3632812 C292.311218,57.8417943 292.415221,57.3847676 292.62323,56.9921875 C292.831239,56.5996074 293.125669,56.2729505 293.506531,56.012207 C293.887392,55.7514635 294.345884,55.5566413 294.882019,55.4277344 C295.418155,55.2988275 296.01727,55.234375 296.679382,55.234375 L298.454773,55.234375 L298.454773,54.4873047 C298.454773,54.2001939 298.402039,53.942384 298.29657,53.7138672 C298.191101,53.4853504 298.041688,53.2905281 297.848328,53.1293945 C297.654967,52.9682609 297.41913,52.8437504 297.140808,52.7558594 C296.862486,52.6679683 296.550478,52.6240234 296.204773,52.6240234 C295.882506,52.6240234 295.593934,52.6650387 295.33905,52.7470703 C295.084166,52.829102 294.868836,52.9374993 294.693054,53.0722656 C294.517272,53.2070319 294.381043,53.3666983 294.284363,53.5512695 C294.187683,53.7358408 294.139343,53.9277334 294.139343,54.1269531 L292.504578,54.1269531 C292.510437,53.7812483 292.599792,53.4414079 292.772644,53.1074219 C292.945496,52.7734358 293.194517,52.4731459 293.519714,52.206543 C293.844911,51.9399401 294.240415,51.7246102 294.706238,51.5605469 C295.17206,51.3964836 295.700864,51.3144531 296.292664,51.3144531 C296.831729,51.3144531 297.3327,51.3803704 297.795593,51.512207 C298.258486,51.6440436 298.658385,51.8432604 298.9953,52.1098633 C299.332216,52.3764662 299.59735,52.7089824 299.79071,53.1074219 C299.984071,53.5058614 300.08075,53.971677 300.08075,54.5048828 L300.08075,58.9257812 C300.08075,59.2421891 300.110046,59.5776349 300.16864,59.9321289 C300.227234,60.2866229 300.309265,60.5957018 300.414734,60.859375 L300.414734,61 L298.718445,61 Z M295.844421,59.7607422 C296.160829,59.7607422 296.456725,59.719727 296.732117,59.6376953 C297.007509,59.5556637 297.257994,59.4472663 297.483582,59.3125 C297.709169,59.1777337 297.903991,59.0239266 298.068054,58.8510742 C298.232118,58.6782218 298.361022,58.4980478 298.454773,58.3105469 L298.454773,56.3857422 L296.943054,56.3857422 C295.993831,56.3857422 295.255557,56.5263658 294.72821,56.8076172 C294.200864,57.0888686 293.937195,57.531247 293.937195,58.1347656 C293.937195,58.3691418 293.976745,58.5859365 294.055847,58.7851562 C294.134949,58.984376 294.2536,59.155761 294.411804,59.2993164 C294.570008,59.4428718 294.769225,59.5556637 295.00946,59.6376953 C295.249696,59.719727 295.528014,59.7607422 295.844421,59.7607422 Z M308.002789,49.1875 L308.002789,51.4902344 L311.623882,51.4902344 L311.623882,52.7470703 L308.002789,52.7470703 L308.002789,57.9150391 C308.002789,58.2841815 308.049663,58.588866 308.143414,58.8291016 C308.237164,59.0693371 308.366069,59.2612298 308.530132,59.4047852 C308.694196,59.5483406 308.883159,59.6494138 309.097027,59.7080078 C309.310895,59.7666019 309.537944,59.7958984 309.778179,59.7958984 C309.953961,59.7958984 310.1356,59.7856446 310.323101,59.7651367 C310.510602,59.7446288 310.693706,59.7197267 310.872417,59.6904297 C311.051129,59.6611327 311.21812,59.6303713 311.373394,59.5981445 C311.528668,59.5659178 311.656108,59.5380861 311.755718,59.5146484 L311.984234,60.6660156 C311.849468,60.7480473 311.685407,60.8198239 311.492046,60.8813477 C311.298686,60.9428714 311.087751,60.9956052 310.859234,61.0395508 C310.630717,61.0834963 310.38902,61.1171874 310.134136,61.140625 C309.879252,61.1640626 309.625837,61.1757812 309.373882,61.1757812 C308.952005,61.1757812 308.557966,61.1157233 308.191753,60.9956055 C307.825541,60.8754877 307.507673,60.6850599 307.23814,60.4243164 C306.968608,60.1635729 306.756207,59.8266622 306.600933,59.4135742 C306.445659,59.0004862 306.368023,58.5009795 306.368023,57.9150391 L306.368023,52.7470703 L303.871929,52.7470703 L303.871929,51.4902344 L306.368023,51.4902344 L306.368023,49.1875 L308.002789,49.1875 Z M316.09182,51.4902344 L320.952171,51.4902344 L320.952171,59.59375 L324.05471,59.59375 L324.05471,61 L316.09182,61 L316.09182,59.59375 L319.326195,59.59375 L319.326195,52.9052734 L316.09182,52.9052734 L316.09182,51.4902344 Z M319.115257,48.9941406 C319.115257,48.724608 319.195823,48.4975595 319.356956,48.3129883 C319.51809,48.128417 319.762717,48.0361328 320.090843,48.0361328 C320.41311,48.0361328 320.656272,48.128417 320.820335,48.3129883 C320.984399,48.4975595 321.066429,48.724608 321.066429,48.9941406 C321.066429,49.2578138 320.984399,49.4775382 320.820335,49.6533203 C320.656272,49.8291024 320.41311,49.9169922 320.090843,49.9169922 C319.762717,49.9169922 319.51809,49.8291024 319.356956,49.6533203 C319.195823,49.4775382 319.115257,49.2578138 319.115257,48.9941406 Z M327.063663,56.1572266 C327.063663,55.4716763 327.163272,54.8344756 327.362492,54.2456055 C327.561711,53.6567353 327.847353,53.14551 328.219425,52.7119141 C328.591497,52.2783181 329.04413,51.937013 329.577335,51.6879883 C330.110541,51.4389636 330.711121,51.3144531 331.379093,51.3144531 C332.052925,51.3144531 332.657899,51.4389636 333.194035,51.6879883 C333.73017,51.937013 334.184267,52.2783181 334.556339,52.7119141 C334.928411,53.14551 335.214053,53.6567353 335.413273,54.2456055 C335.612493,54.8344756 335.712101,55.4716763 335.712101,56.1572266 L335.712101,56.3505859 C335.712101,57.0361362 335.612493,57.6718721 335.413273,58.2578125 C335.214053,58.8437529 334.928411,59.3535135 334.556339,59.7871094 C334.184267,60.2207053 333.731635,60.5605456 333.198429,60.8066406 C332.665223,61.0527356 332.064643,61.1757812 331.396671,61.1757812 C330.72284,61.1757812 330.117865,61.0527356 329.58173,60.8066406 C329.045594,60.5605456 328.591497,60.2207053 328.219425,59.7871094 C327.847353,59.3535135 327.561711,58.8437529 327.362492,58.2578125 C327.163272,57.6718721 327.063663,57.0361362 327.063663,56.3505859 L327.063663,56.1572266 Z M328.68964,56.3505859 C328.68964,56.8193383 328.745304,57.2661112 328.856632,57.690918 C328.967961,58.1157248 329.136416,58.4892562 329.362003,58.8115234 C329.58759,59.1337907 329.870302,59.3886709 330.210148,59.5761719 C330.549993,59.7636728 330.945497,59.8574219 331.396671,59.8574219 C331.841986,59.8574219 332.233095,59.7636728 332.570011,59.5761719 C332.906927,59.3886709 333.188174,59.1337907 333.413761,58.8115234 C333.639348,58.4892562 333.807804,58.1157248 333.919132,57.690918 C334.030461,57.2661112 334.086124,56.8193383 334.086124,56.3505859 L334.086124,56.1572266 C334.086124,55.6943336 334.028996,55.2504904 333.914738,54.8256836 C333.800479,54.4008768 333.630559,54.0273454 333.404972,53.7050781 C333.179385,53.3828109 332.898138,53.1264658 332.561222,52.9360352 C332.224306,52.7456045 331.830267,52.6503906 331.379093,52.6503906 C330.927919,52.6503906 330.535345,52.7456045 330.201359,52.9360352 C329.867373,53.1264658 329.58759,53.3828109 329.362003,53.7050781 C329.136416,54.0273454 328.967961,54.4008768 328.856632,54.8256836 C328.745304,55.2504904 328.68964,55.6943336 328.68964,56.1572266 L328.68964,56.3505859 Z M340.663437,51.4902344 L340.777695,52.8964844 C341.1234,52.4042944 341.5482,52.0190444 342.052109,51.7407227 C342.556018,51.462401 343.118512,51.3203125 343.739609,51.3144531 C344.237658,51.3144531 344.69029,51.3847649 345.097519,51.5253906 C345.504748,51.6660163 345.851912,51.8857407 346.139023,52.1845703 C346.426134,52.4833999 346.647323,52.8627907 346.802597,53.3227539 C346.957871,53.7827171 347.035507,54.3290984 347.035507,54.9619141 L347.035507,61 L345.409531,61 L345.409531,54.9970703 C345.409531,54.5751932 345.362656,54.2177749 345.268906,53.9248047 C345.175155,53.6318345 345.035996,53.3945322 344.851425,53.2128906 C344.666854,53.0312491 344.44127,52.8994145 344.174667,52.8173828 C343.908064,52.7353512 343.601915,52.6943359 343.25621,52.6943359 C342.711286,52.6943359 342.232287,52.830565 341.819199,53.1030273 C341.406111,53.3754896 341.076524,53.7343728 340.830429,54.1796875 L340.830429,61 L339.204453,61 L339.204453,51.4902344 L340.663437,51.4902344 Z" id="Design-+-Illustratio" fill="#384037"></path>
            </g>
        </g>
    </g>
</svg>